<svg xmlns="http://www.w3.org/2000/svg" height="53" width="182.4" data-name="logo epfl 2019"><path d="M0 21.6h11.43V9.8h26.91V0H0zM0 53h38.34v-9.8H11.43V31.4H0z" fill="red"/><path d="M11.43 21.6h24.61v9.8H11.43zM86 4.87a16.12 16.12 0 00-5.68-3.53A23.76 23.76 0 0071.82 0H48.14v53h11.43V31.4h12.25a23.76 23.76 0 008.46-1.34A16.12 16.12 0 0086 26.53a13.43 13.43 0 003.19-5 17.38 17.38 0 000-11.62A13.52 13.52 0 0086 4.87zm-8 13.86a5.7 5.7 0 01-2.26 1.8 11.33 11.33 0 01-3.27.85 32 32 0 01-3.86.22h-9.04V9.8h9.05a32 32 0 013.86.22 11 11 0 013.27.86A5.59 5.59 0 0178 12.67a5 5 0 01.86 3 5 5 0 01-.86 3.06zM155.47 43.2V0h-11.43v53h38.34v-9.8zM97.42 21.6h11.43V9.8h26.91V0H97.42zM97.42 31.4h11.43V53H97.42z" fill="red"/><path d="M108.85 21.6h24.61v9.8h-24.61z" fill="red"/></svg>